
<svg width="700" height="600" viewBox="0 0 1000 1000" fill="none" xmlns="http://www.w3.org/2000/svg"  >
        <style>
        @keyframes cloud{
        0%   {  transform:translate(20px); }
        50%{
                transform:translate(40px);
        }
        100% { transform:translate(20px); } 
        }

        #cloud{
        animation: cloud 5s infinite;
        }

        @keyframes tree{
        0%   {  transform:translate(-20px); }
        50%{
                transform:translate(-40px);
        }
        100% { transform:translate(-20px); } 
        }

        #tree, #left-house, #center-house, #left-fence, #right-fence {
                animation: tree 5s infinite; 
        }
        @keyframes birds{
        0%   {          
                visibility: visible;

                transform:scale(2) }
        25%{
                transform: scale(1.5);
        }
        50%{
                transform: scale(1);
        }
        75%{
                transform: scale(0.5);
        }
        85%{
                transform: rotateZ(60deg);;
        }
        100% { transform:rotateZ(89deg); } 
        }

        #birds{
                animation:birds 5s infinite; 
                visibility: hidden;
        }
        </style>
<g id="day-farm">
<g id="left-house">
<path id="XMLID 124" d="M287.3 560L284.7 447H179.7L177.1 560L173.3 726H291.1L287.3 560Z" fill="#F03A47"/>
<path id="XMLID 157" d="M240.5 593.8H287.6" stroke="#DD2A40" stroke-width="6" stroke-miterlimit="10"/>
<path id="XMLID 160" opacity="0.85" d="M209 609.3H239.2" stroke="#464950" stroke-width="6" stroke-miterlimit="10" stroke-linejoin="round"/>
<path id="XMLID 161" opacity="0.85" d="M274.2 622H289.3" stroke="#464950" stroke-width="6" stroke-miterlimit="10" stroke-linejoin="round"/>
<path id="XMLID 158" d="M272.7 654.2H287.6" stroke="#DD2A40" stroke-width="6" stroke-miterlimit="10"/>
<path id="XMLID 125" d="M205.7 573H287.6L287.3 560H203.9L205.7 573Z" fill="#DD2A40"/>
<path id="XMLID 135" d="M173.3 726H207L211.9 456L284.9 455.8L284.7 447H179.7L177.1 560L173.3 726Z" fill="#DD2A40"/>
<path id="XMLID 131" d="M287.3 560L284.7 447H179.7L177.1 560L173.3 726H291.1L287.3 560Z" stroke="#464950" stroke-width="10" stroke-miterlimit="10" stroke-linecap="round" stroke-linejoin="round"/>
<path id="XMLID 130" d="M303 561H161.4L177.9 536H286.5L303 561Z" fill="#5A646D"/>
<path id="XMLID 7" d="M303 561H161.4L177.9 536H286.5L303 561Z" stroke="#464950" stroke-width="10" stroke-miterlimit="10" stroke-linecap="round" stroke-linejoin="round"/>
<path id="XMLID 129" d="M222.7 511H197.7V483.5C197.7 476.6 203.3 471 210.2 471C217.1 471 222.7 476.6 222.7 483.5V511Z" fill="#F4FFC5"/>
<path id="XMLID 127" d="M266.7 511H240.7V483.5C240.7 476.6 246.3 471 253.2 471H254.2C261.1 471 266.7 476.6 266.7 483.5V511Z" fill="#F4FFC5"/>
<path id="XMLID 134" d="M210.2 471C203.3 471 197.7 476.6 197.7 483.5V494.5C197.7 487.6 203.3 482 210.2 482C217.1 482 222.7 487.6 222.7 494.5V483.5C222.7 476.6 217.1 471 210.2 471Z" fill="#B7C391"/>
<path id="XMLID 136" d="M254.2 471H253.2C246.3 471 240.7 476.6 240.7 483.5V494.5C240.7 487.6 246.3 482 253.2 482H254.2C261.1 482 266.7 487.6 266.7 494.5V483.5C266.7 476.6 261.1 471 254.2 471Z" fill="#B7C391"/>
<path id="XMLID 10" d="M222.7 511H197.7V483.5C197.7 476.6 203.3 471 210.2 471C217.1 471 222.7 476.6 222.7 483.5V511Z" stroke="#464950" stroke-width="10" stroke-miterlimit="10" stroke-linecap="round" stroke-linejoin="round"/>
<path id="XMLID 14" d="M266.7 511H240.7V483.5C240.7 476.6 246.3 471 253.2 471H254.2C261.1 471 266.7 476.6 266.7 483.5V511Z" stroke="#464950" stroke-width="10" stroke-miterlimit="10" stroke-linecap="round" stroke-linejoin="round"/>
<path id="XMLID 126" d="M297.2 447H167.2L232.2 383.6L297.2 447Z" fill="#5A646D"/>
<path id="XMLID 128" d="M232.2 383.6L213.3 447H167.2L232.2 383.6Z" fill="#4C555C"/>
<path id="XMLID 8" d="M297.2 447H167.2L232.2 383.6L297.2 447Z" stroke="#464950" stroke-width="10" stroke-miterlimit="10" stroke-linecap="round" stroke-linejoin="round"/>
<path id="XMLID 12" d="M260.6 625H203.9V726H260.6V625Z" fill="#F4FFC5"/>
<path id="XMLID 13" d="M260.6 625H203.9V637.8H260.6V625Z" fill="#B7C391"/>
<path id="XMLID 231" d="M213 625H204.9V726H213V625Z" fill="#B7C391"/>
<path id="XMLID 15" d="M260.6 625H203.9V726H260.6V625Z" stroke="#464950" stroke-width="10" stroke-miterlimit="10" stroke-linecap="round" stroke-linejoin="round"/>
<path id="XMLID 17" d="M214.1 636L250.3 715" stroke="#464950" stroke-width="8" stroke-miterlimit="10" stroke-linecap="round" stroke-linejoin="round"/>
<path id="XMLID 18" d="M250.3 636L214.1 715" stroke="#464950" stroke-width="8" stroke-miterlimit="10" stroke-linecap="round" stroke-linejoin="round"/>
<path id="XMLID 162" opacity="0.85" d="M259.1 672H272.7" stroke="#464950" stroke-width="6" stroke-miterlimit="10" stroke-linejoin="round"/>
</g>
<g id="center-house">
<path id="XMLID 47" d="M563.4 492.4L473.1 447L382.8 492.4L353.4 544V723.8H592.8V544L563.4 492.4Z" fill="#F03A47"/>
<path id="XMLID 60" d="M563.4 492.4L473.1 447L382.8 492.4L353.4 544V723.8H592.8V544L563.4 492.4Z" fill="#F03A47"/>
<path id="XMLID 66" opacity="0.92" d="M476.1 447L385.8 492.4L356.4 544V596.4L404.5 517.1L476.1 481.1L547.7 517.1L595.8 596.4V544L566.4 492.4L476.1 447Z" fill="#DD2A40"/>
<g id="XMLID 71" opacity="0.4">
<g id="XMLID 97" opacity="0.4">
<path id="XMLID 98" opacity="0.4" d="M403.8 489H542.4" stroke="#464950" stroke-width="3" stroke-miterlimit="10" stroke-linecap="round" stroke-linejoin="round"/>
</g>
<g id="XMLID 95" opacity="0.4">
<path id="XMLID 96" opacity="0.4" d="M383.5 507H562.7" stroke="#464950" stroke-width="3" stroke-miterlimit="10" stroke-linecap="round" stroke-linejoin="round"/>
</g>
<g id="XMLID 93" opacity="0.4">
<path id="XMLID 94" opacity="0.4" d="M372.2 525H574" stroke="#464950" stroke-width="3" stroke-miterlimit="10" stroke-linecap="round" stroke-linejoin="round"/>
</g>
<g id="XMLID 91" opacity="0.4">
<path id="XMLID 92" opacity="0.4" d="M360.9 543H585.3" stroke="#464950" stroke-width="3" stroke-miterlimit="10" stroke-linecap="round" stroke-linejoin="round"/>
</g>
<g id="XMLID 89" opacity="0.4">
<path id="XMLID 90" opacity="0.4" d="M353.4 561H592.8" stroke="#464950" stroke-width="3" stroke-miterlimit="10" stroke-linecap="round" stroke-linejoin="round"/>
</g>
<g id="XMLID 87" opacity="0.4">
<path id="XMLID 88" opacity="0.4" d="M353.4 579H592.8" stroke="#464950" stroke-width="3" stroke-miterlimit="10" stroke-linecap="round" stroke-linejoin="round"/>
</g>
<g id="XMLID 85" opacity="0.4">
<path id="XMLID 86" opacity="0.4" d="M353.4 597H592.8" stroke="#464950" stroke-width="3" stroke-miterlimit="10" stroke-linecap="round" stroke-linejoin="round"/>
</g>
<g id="XMLID 83" opacity="0.4">
<path id="XMLID 84" opacity="0.4" d="M353.4 615H592.8" stroke="#464950" stroke-width="3" stroke-miterlimit="10" stroke-linecap="round" stroke-linejoin="round"/>
</g>
<g id="XMLID 81" opacity="0.4">
<path id="XMLID 82" opacity="0.4" d="M353.4 633H592.8" stroke="#464950" stroke-width="3" stroke-miterlimit="10" stroke-linecap="round" stroke-linejoin="round"/>
</g>
<g id="XMLID 78" opacity="0.4">
<path id="XMLID 79" opacity="0.4" d="M353.4 651H592.8" stroke="#464950" stroke-width="3" stroke-miterlimit="10" stroke-linecap="round" stroke-linejoin="round"/>
</g>
<g id="XMLID 76" opacity="0.4">
<path id="XMLID 77" opacity="0.4" d="M353.4 669H592.8" stroke="#464950" stroke-width="3" stroke-miterlimit="10" stroke-linecap="round" stroke-linejoin="round"/>
</g>
<g id="XMLID 74" opacity="0.4">
<path id="XMLID 75" opacity="0.4" d="M353.4 687H592.8" stroke="#464950" stroke-width="3" stroke-miterlimit="10" stroke-linecap="round" stroke-linejoin="round"/>
</g>
<g id="XMLID 72" opacity="0.4">
<path id="XMLID 73" opacity="0.4" d="M353.4 705H592.8" stroke="#464950" stroke-width="3" stroke-miterlimit="10" stroke-linecap="round" stroke-linejoin="round"/>
</g>
</g>
<path id="XMLID 16" d="M592.8 587.4H353.4V597.2H592.8V587.4Z" fill="#DD2A40"/>
<g id="XMLID 69" opacity="0.97">
<g id="XMLID 122" opacity="0.97">
<path id="XMLID 123" opacity="0.97" d="M403.8 492H542.4" stroke="#464950" stroke-width="3" stroke-miterlimit="10" stroke-linecap="round" stroke-linejoin="round"/>
</g>
<g id="XMLID 120" opacity="0.97">
<path id="XMLID 121" opacity="0.97" d="M383.5 510H562.7" stroke="#464950" stroke-width="3" stroke-miterlimit="10" stroke-linecap="round" stroke-linejoin="round"/>
</g>
<g id="XMLID 118" opacity="0.97">
<path id="XMLID 119" opacity="0.97" d="M372.2 528H574" stroke="#464950" stroke-width="3" stroke-miterlimit="10" stroke-linecap="round" stroke-linejoin="round"/>
</g>
<g id="XMLID 116" opacity="0.97">
<path id="XMLID 117" opacity="0.97" d="M360.9 546H585.3" stroke="#464950" stroke-width="3" stroke-miterlimit="10" stroke-linecap="round" stroke-linejoin="round"/>
</g>
<g id="XMLID 114" opacity="0.97">
<path id="XMLID 115" opacity="0.97" d="M353.4 564H592.8" stroke="#464950" stroke-width="3" stroke-miterlimit="10" stroke-linecap="round" stroke-linejoin="round"/>
</g>
<g id="XMLID 112" opacity="0.97">
<path id="XMLID 113" opacity="0.97" d="M353.4 582H592.8" stroke="#464950" stroke-width="3" stroke-miterlimit="10" stroke-linecap="round" stroke-linejoin="round"/>
</g>
<g id="XMLID 110" opacity="0.97">
<path id="XMLID 111" opacity="0.97" d="M353.4 600H592.8" stroke="#464950" stroke-width="3" stroke-miterlimit="10" stroke-linecap="round" stroke-linejoin="round"/>
</g>
<g id="XMLID 108" opacity="0.97">
<path id="XMLID 109" opacity="0.97" d="M353.4 618H592.8" stroke="#464950" stroke-width="3" stroke-miterlimit="10" stroke-linecap="round" stroke-linejoin="round"/>
</g>
<g id="XMLID 106" opacity="0.97">
<path id="XMLID 107" opacity="0.97" d="M353.4 636H592.8" stroke="#464950" stroke-width="3" stroke-miterlimit="10" stroke-linecap="round" stroke-linejoin="round"/>
</g>
<g id="XMLID 104" opacity="0.97">
<path id="XMLID 105" opacity="0.97" d="M353.4 654H592.8" stroke="#464950" stroke-width="3" stroke-miterlimit="10" stroke-linecap="round" stroke-linejoin="round"/>
</g>
<g id="XMLID 102" opacity="0.97">
<path id="XMLID 103" opacity="0.97" d="M353.4 672H592.8" stroke="#464950" stroke-width="3" stroke-miterlimit="10" stroke-linecap="round" stroke-linejoin="round"/>
</g>
<g id="XMLID 100" opacity="0.97">
<path id="XMLID 101" opacity="0.97" d="M353.4 690H592.8" stroke="#464950" stroke-width="3" stroke-miterlimit="10" stroke-linecap="round" stroke-linejoin="round"/>
</g>
<g id="XMLID 80" opacity="0.97">
<path id="XMLID 99" opacity="0.97" d="M353.4 708H592.8" stroke="#464950" stroke-width="3" stroke-miterlimit="10" stroke-linecap="round" stroke-linejoin="round"/>
</g>
</g>
<path id="XMLID 28" d="M563.4 492.4L473.1 447L382.8 492.4L353.4 544V723.8H592.8V544L563.4 492.4Z" stroke="#464950" stroke-width="10" stroke-miterlimit="10" stroke-linecap="round" stroke-linejoin="round"/>
<path id="XMLID 53" d="M542.4 629.5H473.1V723.8H542.4V629.5Z" fill="#F4FFC5"/>
<path id="XMLID 67" d="M542.4 629.5H473.1V643H542.4V629.5Z" fill="#B7C391"/>
<path id="XMLID 21" d="M542.4 629.5H473.1V723.8H542.4V629.5Z" stroke="#464950" stroke-width="10" stroke-miterlimit="10" stroke-linecap="round" stroke-linejoin="round"/>
<path id="XMLID 56" d="M503.1 507H443.1V567H503.1V507Z" fill="#F4FFC5"/>
<path id="XMLID 65" d="M503.1 507H443.1V567H503.1V507Z" fill="#F4FFC5"/>
<path id="XMLID 68" d="M503.1 507H443.1V517.5H503.1V507Z" fill="#B7C391"/>
<path id="XMLID 70" d="M503.1 537.5H443.1V545.5H503.1V537.5Z" fill="#B7C391"/>
<path id="XMLID 20" d="M503.1 507H443.1V567H503.1V507Z" stroke="#464950" stroke-width="10" stroke-miterlimit="10" stroke-linecap="round" stroke-linejoin="round"/>
<path id="XMLID 50" d="M611.4 576.5L597.5 584.4L551.9 504.5L473.1 464.9L394.3 504.5L348.7 584.4L334.8 576.5L382.8 492.4L473.1 447L563.4 492.4L611.4 576.5Z" fill="#A58167"/>
<path id="XMLID 33" d="M611.4 576.5L597.5 584.4L551.9 504.5L473.1 464.9L394.3 504.5L348.7 584.4L334.8 576.5L382.8 492.4L473.1 447L563.4 492.4L611.4 576.5Z" stroke="#464950" stroke-width="10" stroke-miterlimit="10" stroke-linecap="round" stroke-linejoin="round"/>
<path id="XMLID 63" d="M564.3 584.4H594.8" stroke="#464950" stroke-width="10" stroke-miterlimit="10" stroke-linecap="round" stroke-linejoin="round"/>
<path id="XMLID 61" d="M537 584.4H549" stroke="#464950" stroke-width="10" stroke-miterlimit="10" stroke-linecap="round" stroke-linejoin="round"/>
<path id="XMLID 54" d="M348.7 584.4H523.7" stroke="#464950" stroke-width="10" stroke-miterlimit="10" stroke-linecap="round" stroke-linejoin="round"/>
<path id="XMLID 24" d="M501.1 537H445.1" stroke="#464950" stroke-width="6" stroke-miterlimit="10" stroke-linecap="round" stroke-linejoin="round"/>
<path id="XMLID 216" opacity="0.92" d="M363.6 587.4H353.4V725H363.6V587.4Z" fill="#DD2A40"/>
<path id="XMLID 55" d="M473.1 629.5H403.8V723.8H473.1V629.5Z" fill="#F4FFC5"/>
<path id="XMLID 62" d="M473.1 629.5H403.8V723.8H473.1V629.5Z" fill="#F4FFC5"/>
<path id="XMLID 64" d="M473.1 629.5H403.8V643H473.1V629.5Z" fill="#B7C391"/>
<path id="XMLID 215" d="M413 629.5H403.8V722.7H413V629.5Z" fill="#B7C391"/>
<path id="XMLID 217" d="M482.3 629.5H473.1V722.7H482.3V629.5Z" fill="#B7C391"/>
<path id="XMLID 19" d="M473.1 629.5H403.8V723.8H473.1V629.5Z" stroke="#464950" stroke-width="10" stroke-miterlimit="10" stroke-linecap="round" stroke-linejoin="round"/>
<path id="XMLID 58" d="M416.1 643L460.8 710.3" stroke="#464950" stroke-width="8" stroke-miterlimit="10" stroke-linecap="round" stroke-linejoin="round"/>
<path id="XMLID 59" d="M460.8 643L416.1 710.3" stroke="#464950" stroke-width="8" stroke-miterlimit="10" stroke-linecap="round" stroke-linejoin="round"/>
<path id="XMLID 57" d="M485.4 643L530.1 710.3" stroke="#464950" stroke-width="8" stroke-miterlimit="10" stroke-linecap="round" stroke-linejoin="round"/>
<path id="XMLID 26" d="M530.1 643L485.4 710.3" stroke="#464950" stroke-width="8" stroke-miterlimit="10" stroke-linecap="round" stroke-linejoin="round"/>
<path id="XMLID 23" d="M473.1 508V568.7" stroke="#464950" stroke-width="6" stroke-miterlimit="10" stroke-linecap="round" stroke-linejoin="round"/>
</g>
<g id="left-fence">
<path id="XMLID 247" d="M257.5 815.8H396.6" stroke="#464950" stroke-width="10" stroke-miterlimit="10" stroke-linecap="round" stroke-linejoin="round"/>
<path id="XMLID 175" d="M221 815.8H235.5" stroke="#464950" stroke-width="10" stroke-miterlimit="10" stroke-linecap="round" stroke-linejoin="round"/>
<path id="XMLID 172" d="M396.6 788.7H276.2V795.7H396.6V788.7Z" stroke="#464950" stroke-width="7" stroke-miterlimit="10" stroke-linecap="round" stroke-linejoin="round"/>
<path id="XMLID 174" d="M396.6 765.5H276.2V772.5H396.6V765.5Z" stroke="#464950" stroke-width="7" stroke-miterlimit="10" stroke-linecap="round" stroke-linejoin="round"/>
<path id="XMLID 147" d="M347.3 815.8H328.3V742.8L337.8 732.2L347.3 742.8V815.8Z" fill="#A58167"/>
<path id="XMLID 253" opacity="0.47" d="M337.3 747.8L345.6 738.6L340.8 733.2L331.3 743.8V816.8H337.3V747.8Z" fill="#A58167"/>
<path id="XMLID 144" d="M347.3 815.8H328.3V742.8L337.8 732.2L347.3 742.8V815.8Z" stroke="#464950" stroke-width="10" stroke-miterlimit="10" stroke-linecap="round" stroke-linejoin="round"/>
<path id="XMLID 173" d="M385.6 815.8H366.6V742.8L376.1 732.2L385.6 742.8V815.8Z" fill="#A58167"/>
<path id="XMLID 238" opacity="0.47" d="M375.6 747.8L383.8 738.6L379.1 733.2L369.6 743.8V816.8H375.6V747.8Z" fill="#A58167"/>
<path id="XMLID 185" d="M385.6 815.8H366.6V742.8L376.1 732.2L385.6 742.8V815.8Z" stroke="#464950" stroke-width="10" stroke-miterlimit="10" stroke-linecap="round" stroke-linejoin="round"/>
<path id="XMLID 153" d="M308.6 815.8H289.6V742.8L299.1 732.2L308.6 742.8V815.8Z" fill="#A58167"/>
<path id="XMLID 150" d="M308.6 815.8H289.6V742.8L299.1 732.2L308.6 742.8V815.8Z" fill="#A58167"/>
<path id="XMLID 261" opacity="0.47" d="M298.6 747.8L306.9 738.6L302.1 733.2L292.6 743.8V816.8H298.6V747.8Z" fill="#A58167"/>
<path id="XMLID 151" d="M308.6 815.8H289.6V742.8L299.1 732.2L308.6 742.8V815.8Z" stroke="#464950" stroke-width="10" stroke-miterlimit="10" stroke-linecap="round" stroke-linejoin="round"/>
</g>
<g id="right-fence">
<path id="XMLID 192" d="M864 815.8H883.8" stroke="#464950" stroke-width="10" stroke-miterlimit="10" stroke-linecap="round" stroke-linejoin="round"/>
<path id="XMLID 190" d="M898.2 815.8H902.6" stroke="#464950" stroke-width="10" stroke-miterlimit="10" stroke-linecap="round" stroke-linejoin="round"/>
<path id="XMLID 191" d="M566.5 815.8H848.5" stroke="#464950" stroke-width="10" stroke-miterlimit="10" stroke-linecap="round" stroke-linejoin="round"/>
<path id="XMLID 46" d="M538 815.8H549" stroke="#464950" stroke-width="10" stroke-miterlimit="10" stroke-linecap="round" stroke-linejoin="round"/>
<path id="XMLID 31" d="M840.4 763.5H554.3V767.5H840.4V763.5Z" stroke="#464950" stroke-width="8" stroke-miterlimit="10" stroke-linecap="round" stroke-linejoin="round"/>
<path id="XMLID 37" d="M843.4 786.7H557.3V793.7H843.4V786.7Z" stroke="#464950" stroke-width="8" stroke-miterlimit="10" stroke-linecap="round" stroke-linejoin="round"/>
<path id="XMLID 141" d="M590.9 815.8H571.9V742.8L581.4 732.2L590.9 742.8V815.8Z" fill="#A58167"/>
<path id="XMLID 237" opacity="0.47" d="M580.9 747.8L589.2 738.6L584.4 733.2L574.9 743.8V816.8H580.9V747.8Z" fill="#A58167"/>
<path id="XMLID 34" d="M590.9 815.8H571.9V742.8L581.4 732.2L590.9 742.8V815.8Z" stroke="#464950" stroke-width="10" stroke-miterlimit="10" stroke-linecap="round" stroke-linejoin="round"/>
<path id="XMLID 155" d="M686.5 815.8H667.5V742.8L677 732.2L686.5 742.8V815.8Z" fill="#A58167"/>
<path id="XMLID 240" opacity="0.47" d="M676.5 747.8L684.8 738.6L680 733.2L670.5 743.8V816.8H676.5V747.8Z" fill="#A58167"/>
<path id="XMLID 154" d="M734.3 815.8H715.3V742.8L724.8 732.2L734.3 742.8V815.8Z" fill="#A58167"/>
<path id="XMLID 243" opacity="0.47" d="M723.3 746.8L731.6 737.6L726.8 732.2L717.3 742.8V815.8H723.3V746.8Z" fill="#A58167"/>
<path id="XMLID 146" d="M638.7 815.8H619.7V742.8L629.2 732.2L638.7 742.8V815.8Z" fill="#A58167"/>
<path id="XMLID 244" opacity="0.47" d="M628.7 747.8L637 738.6L632.2 733.2L622.7 743.8V816.8H628.7V747.8Z" fill="#A58167"/>
<path id="XMLID 27" d="M686.5 815.8H667.5V742.8L677 732.2L686.5 742.8V815.8Z" stroke="#464950" stroke-width="10" stroke-miterlimit="10" stroke-linecap="round" stroke-linejoin="round"/>
<path id="XMLID 36" d="M734.3 815.8H715.3V742.8L724.8 732.2L734.3 742.8V815.8Z" stroke="#464950" stroke-width="10" stroke-miterlimit="10" stroke-linecap="round" stroke-linejoin="round"/>
<path id="XMLID 32" d="M638.7 815.8H619.7V742.8L629.2 732.2L638.7 742.8V815.8Z" stroke="#464950" stroke-width="10" stroke-miterlimit="10" stroke-linecap="round" stroke-linejoin="round"/>
<path id="XMLID 149" d="M828 815.8H809V742.8L818.5 732.2L828 742.8V815.8Z" fill="#A58167"/>
<path id="XMLID 236" opacity="0.47" d="M818 747.8L826.3 738.6L821.5 733.2L812 743.8V816.8H818V747.8Z" fill="#A58167"/>
<path id="XMLID 49" d="M828 815.8H809V742.8L818.5 732.2L828 742.8V815.8Z" stroke="#464950" stroke-width="10" stroke-miterlimit="10" stroke-linecap="round" stroke-linejoin="round"/>
<path id="XMLID 152" d="M781.6 815.8H762.6V742.8L772.1 732.2L781.6 742.8V815.8Z" fill="#A58167"/>
<path id="XMLID 242" opacity="0.47" d="M771.6 747.8L779.9 738.6L775.1 733.2L765.6 743.8V816.8H771.6V747.8Z" fill="#A58167"/>
<path id="XMLID 48" d="M781.6 815.8H762.6V742.8L772.1 732.2L781.6 742.8V815.8Z" stroke="#464950" stroke-width="10" stroke-miterlimit="10" stroke-linecap="round" stroke-linejoin="round"/>
</g>
<g id="line-house">
<path id="XMLID 25" d="M65.3 726H945.6" stroke="#464950" stroke-width="10" stroke-miterlimit="10" stroke-linecap="round" stroke-linejoin="round"/>
</g>
<g id="tree">
<path id="XMLID 40" d="M142.3 726C134.3 719.5 129.3 709.6 129.3 698.5C129.3 679 145.1 663.1 164.7 663.1C184.3 663.1 200 679 200 698.6C200 709.7 194.9 719.6 187 726.1L142.3 726Z" fill="#72B579"/>
<path id="XMLID 41" d="M142.3 726C134.3 719.5 129.3 709.6 129.3 698.5C129.3 679 145.1 663.1 164.7 663.1C184.3 663.1 200 679 200 698.6C200 709.7 194.9 719.6 187 726.1L142.3 726Z" stroke="#464950" stroke-width="10" stroke-miterlimit="10" stroke-linecap="round" stroke-linejoin="round"/>
<path id="XMLID 230" d="M627.3 725.6C639.064 725.6 648.6 706.214 648.6 682.3C648.6 658.386 639.064 639 627.3 639C615.536 639 606 658.386 606 682.3C606 706.214 615.536 725.6 627.3 725.6Z" fill="#AECC75"/>
<path id="XMLID 235" opacity="0.51" d="M614.9 682.3C614.9 661.5 622.1 644.2 631.7 640C630.2 639.4 628.7 639 627.2 639C615.4 639 605.9 658.4 605.9 682.3C605.9 706.2 615.4 725.6 627.2 725.6C628.7 725.6 630.2 725.3 631.7 724.6C622.1 720.4 614.9 703.1 614.9 682.3Z" fill="#464950"/>
<path id="XMLID 229" d="M627.3 725.6C639.064 725.6 648.6 706.214 648.6 682.3C648.6 658.386 639.064 639 627.3 639C615.536 639 606 658.386 606 682.3C606 706.214 615.536 725.6 627.3 725.6Z" stroke="#464950" stroke-width="10" stroke-miterlimit="10" stroke-linecap="round" stroke-linejoin="round"/>
<path id="XMLID 52" d="M393.6 513.7C439.219 513.7 476.2 476.719 476.2 431.1C476.2 385.481 439.219 348.5 393.6 348.5C347.981 348.5 311 385.481 311 431.1C311 476.719 347.981 513.7 393.6 513.7Z" fill="#50B893"/>
<path id="XMLID 200" opacity="0.55" d="M326.2 431.1C326.2 388 359.2 352.6 401.3 348.8C398.8 348.6 396.3 348.4 393.7 348.4C348.1 348.4 311.1 385.4 311.1 431C311.1 476.6 348.1 513.6 393.7 513.6C396.3 513.6 398.8 513.5 401.3 513.2C359.1 509.6 326.2 474.2 326.2 431.1Z" fill="#464950"/>
<path id="XMLID 138" d="M393.6 431.1V452.7V494.5" stroke="#464950" stroke-width="10" stroke-miterlimit="10" stroke-linecap="round" stroke-linejoin="round"/>
<path id="XMLID 139" d="M424 444.3L393.6 462.8" stroke="#464950" stroke-width="10" stroke-miterlimit="10" stroke-linecap="round" stroke-linejoin="round"/>
<path id="XMLID 140" d="M393.6 477.3L368 457" stroke="#464950" stroke-width="10" stroke-miterlimit="10" stroke-linecap="round" stroke-linejoin="round"/>
<path id="XMLID 38" d="M393.6 513.7C439.219 513.7 476.2 476.719 476.2 431.1C476.2 385.481 439.219 348.5 393.6 348.5C347.981 348.5 311 385.481 311 431.1C311 476.719 347.981 513.7 393.6 513.7Z" stroke="#464950" stroke-width="10" stroke-miterlimit="10" stroke-linecap="round" stroke-linejoin="round"/>
<path id="XMLID 51" d="M338 545.5C357.33 545.5 373 529.83 373 510.5C373 491.17 357.33 475.5 338 475.5C318.67 475.5 303 491.17 303 510.5C303 529.83 318.67 545.5 338 545.5Z" fill="#429977"/>
<path id="XMLID 201" opacity="0.31" d="M315.9 510.5C315.9 493.4 328.2 479.1 344.5 476.1C342.4 475.7 340.3 475.5 338.1 475.5C318.8 475.5 303.1 491.2 303.1 510.5C303.1 529.8 318.8 545.5 338.1 545.5C340.3 545.5 342.4 545.3 344.5 544.9C328.2 541.9 315.9 527.6 315.9 510.5Z" fill="#464950"/>
<path id="XMLID 142" d="M346 519.1L375 538.3" stroke="#464950" stroke-width="10" stroke-miterlimit="10" stroke-linecap="round" stroke-linejoin="round"/>
<path id="XMLID 171" d="M741.6 649.4C767.226 649.4 788 611.837 788 565.5C788 519.163 767.226 481.6 741.6 481.6C715.974 481.6 695.2 519.163 695.2 565.5C695.2 611.837 715.974 649.4 741.6 649.4Z" fill="#AECC75"/>
<path id="XMLID 202" opacity="0.51" d="M707.6 566.5C707.6 522.7 726.2 486.8 749.8 483C747.1 482.1 744.4 481.6 741.5 481.6C715.9 481.6 695.1 519.2 695.1 565.5C695.1 611.8 715.9 649.4 741.5 649.4C742.9 649.4 744.3 649.3 745.7 649C724.1 642 707.6 607.7 707.6 566.5Z" fill="#464950"/>
<path id="XMLID 11" d="M741.6 649.4C767.226 649.4 788 611.837 788 565.5C788 519.163 767.226 481.6 741.6 481.6C715.974 481.6 695.2 519.163 695.2 565.5C695.2 611.837 715.974 649.4 741.6 649.4Z" stroke="#464950" stroke-width="10" stroke-miterlimit="10" stroke-linecap="round" stroke-linejoin="round"/>
<path id="XMLID 22" d="M741.6 548.7V624V723.8" stroke="#464950" stroke-width="10" stroke-miterlimit="10" stroke-linecap="round" stroke-linejoin="round"/>
<path id="XMLID 163" d="M899.2 489.5C908.5 522 908.6 552.4 897.7 576.2C887.2 599.8 865.8 616.9 840.4 616.7C814.9 616.9 793.5 599.8 783.1 576.2C772.3 552.3 772.3 521.9 781.6 489.5C803.1 424.6 818.8 370 840.4 370C862 369.9 877.7 424.6 899.2 489.5Z" fill="#72B579"/>
<path id="XMLID 208" opacity="0.51" d="M818.1 575.1C822.573 575.1 826.2 571.474 826.2 567C826.2 562.526 822.573 558.9 818.1 558.9C813.626 558.9 810 562.526 810 567C810 571.474 813.626 575.1 818.1 575.1Z" fill="#464950"/>
<path id="XMLID 206" opacity="0.38" d="M798.6 576C787.2 551 787.3 519 797.1 484.9C813.9 433.7 827.2 383.5 841.9 374.9C841.3 374.8 841 369.8 840.4 369.8C818.8 369.8 803.1 424.5 781.6 489.3C772.3 521.8 772.2 552.2 783.1 576C793.6 599.6 815 616.7 840.4 616.5C841.5 616.5 842.5 616.5 843.6 616.4C823.7 611.4 807.4 595.9 798.6 576Z" fill="#464950"/>
<path id="XMLID 29" d="M899.2 489.5C908.5 522 908.6 552.4 897.7 576.2C887.2 599.8 865.8 616.9 840.4 616.7C814.9 616.9 793.5 599.8 783.1 576.2C772.3 552.3 772.3 521.9 781.6 489.5C803.1 424.6 818.8 370 840.4 370C862 369.9 877.7 424.6 899.2 489.5Z" stroke="#464950" stroke-width="10" stroke-miterlimit="10" stroke-linecap="round" stroke-linejoin="round"/>
<path id="XMLID 133" d="M284.3 723.8C284.3 709.1 296.2 697.2 310.9 697.2C325.6 697.2 337.5 709.1 337.5 723.8H284.3Z" fill="#AECC75"/>
<path id="XMLID 39" d="M284.3 723.8C284.3 709.1 296.2 697.2 310.9 697.2C325.6 697.2 337.5 709.1 337.5 723.8H284.3Z" stroke="#464950" stroke-width="10" stroke-miterlimit="10" stroke-linecap="round" stroke-linejoin="round"/>
<path id="XMLID 233" d="M91.8 725.8C91.8 711.1 103.7 699.2 118.4 699.2C133.1 699.2 145 711.1 145 725.8H91.8Z" fill="#AECC75"/>
<path id="XMLID 42" d="M91.8 725.8C91.8 711.1 103.7 699.2 118.4 699.2C133.1 699.2 145 711.1 145 725.8H91.8Z" stroke="#464950" stroke-width="10" stroke-miterlimit="10" stroke-linecap="round" stroke-linejoin="round"/>
<path id="XMLID 156" opacity="0.76" d="M415.4 398.2C419.045 398.2 422 395.245 422 391.6C422 387.955 419.045 385 415.4 385C411.755 385 408.8 387.955 408.8 391.6C408.8 395.245 411.755 398.2 415.4 398.2Z" fill="#464950"/>
<path id="XMLID 170" opacity="0.76" d="M373.1 395.9C379.893 395.9 385.4 390.393 385.4 383.6C385.4 376.807 379.893 371.3 373.1 371.3C366.307 371.3 360.8 376.807 360.8 383.6C360.8 390.393 366.307 395.9 373.1 395.9Z" fill="#464950"/>
<path id="XMLID 165" opacity="0.76" d="M368 434.9C370.099 434.9 371.8 433.199 371.8 431.1C371.8 429.001 370.099 427.3 368 427.3C365.901 427.3 364.2 429.001 364.2 431.1C364.2 433.199 365.901 434.9 368 434.9Z" fill="#464950"/>
<path id="XMLID 164" opacity="0.67" d="M342.8 430.8C347.218 430.8 350.8 427.218 350.8 422.8C350.8 418.382 347.218 414.8 342.8 414.8C338.382 414.8 334.8 418.382 334.8 422.8C334.8 427.218 338.382 430.8 342.8 430.8Z" fill="#464950"/>
<path id="XMLID 169" opacity="0.67" d="M386.7 416.4C390.511 416.4 393.6 413.311 393.6 409.5C393.6 405.689 390.511 402.6 386.7 402.6C382.889 402.6 379.8 405.689 379.8 409.5C379.8 413.311 382.889 416.4 386.7 416.4Z" fill="#464950"/>
<path id="XMLID 167" opacity="0.67" d="M443.5 429.2C445.267 429.2 446.7 427.767 446.7 426C446.7 424.233 445.267 422.8 443.5 422.8C441.733 422.8 440.3 424.233 440.3 426C440.3 427.767 441.733 429.2 443.5 429.2Z" fill="#464950"/>
<path id="XMLID 177" d="M893.5 499.8C906.092 499.8 916.3 489.592 916.3 477C916.3 464.408 906.092 454.2 893.5 454.2C880.908 454.2 870.7 464.408 870.7 477C870.7 489.592 880.908 499.8 893.5 499.8Z" fill="#62A366"/>
<path id="XMLID 207" opacity="0.3" d="M882.9 477C882.9 466 890.7 456.8 901.1 454.6C899.6 454.3 898.1 454.1 896.5 454.1C883.9 454.1 873.7 464.3 873.7 476.9C873.7 489.5 883.9 499.7 896.5 499.7C898.1 499.7 899.6 499.5 901.1 499.2C890.7 497.2 882.9 488 882.9 477Z" fill="#464950"/>
<path id="XMLID 43" d="M893.5 499.8C906.092 499.8 916.3 489.592 916.3 477C916.3 464.408 906.092 454.2 893.5 454.2C880.908 454.2 870.7 464.408 870.7 477C870.7 489.592 880.908 499.8 893.5 499.8Z" stroke="#464950" stroke-width="10" stroke-miterlimit="10" stroke-linecap="round" stroke-linejoin="round"/>
<path id="XMLID 30" d="M840.4 498V582V723.8" stroke="#464950" stroke-width="10" stroke-miterlimit="10" stroke-linecap="round" stroke-linejoin="round"/>
<path id="XMLID 212" d="M778.6 724.7C778.6 695.5 802.3 671.8 831.5 671.8C860.7 671.8 884.4 695.5 884.4 724.7H778.6Z" fill="#72B579"/>
<path id="XMLID 210" d="M778.6 724.7C778.6 695.5 802.3 671.8 831.5 671.8C860.7 671.8 884.4 695.5 884.4 724.7H778.6Z" fill="#72B579"/>
<path id="XMLID 226" opacity="0.38" d="M840.8 672.6C837.8 672.1 834.7 671.8 831.5 671.8C802.3 671.8 778.6 695.5 778.6 724.7H797.3C797.3 698.7 816 677 840.8 672.6Z" fill="#464950"/>
<path id="XMLID 211" d="M778.6 724.7C778.6 695.5 802.3 671.8 831.5 671.8C860.7 671.8 884.4 695.5 884.4 724.7H778.6Z" stroke="#464950" stroke-width="10" stroke-miterlimit="10" stroke-linecap="round" stroke-linejoin="round"/>
<path id="XMLID 186" d="M870.6 564L840.4 590" stroke="#464950" stroke-width="10" stroke-miterlimit="10" stroke-linecap="round" stroke-linejoin="round"/>
<path id="XMLID 187" d="M840.4 546L812 516.6" stroke="#464950" stroke-width="10" stroke-miterlimit="10" stroke-linecap="round" stroke-linejoin="round"/>
<path id="XMLID 188" d="M760.5 606.7L741.6 624" stroke="#464950" stroke-width="10" stroke-miterlimit="10" stroke-linecap="round" stroke-linejoin="round"/>
<path id="XMLID 189" d="M741.6 593.3L721.8 573.5" stroke="#464950" stroke-width="10" stroke-miterlimit="10" stroke-linecap="round" stroke-linejoin="round"/>
<path id="XMLID 166" opacity="0.51" d="M762.9 582.3C766.711 582.3 769.8 579.211 769.8 575.4C769.8 571.589 766.711 568.5 762.9 568.5C759.089 568.5 756 571.589 756 575.4C756 579.211 759.089 582.3 762.9 582.3Z" fill="#464950"/>
<path id="XMLID 194" opacity="0.51" d="M720.9 545.4C722.723 545.4 724.2 543.923 724.2 542.1C724.2 540.277 722.723 538.8 720.9 538.8C719.077 538.8 717.6 540.277 717.6 542.1C717.6 543.923 719.077 545.4 720.9 545.4Z" fill="#464950"/>
<path id="XMLID 196" opacity="0.43" d="M739.1 524.8C743.187 524.8 746.5 521.487 746.5 517.4C746.5 513.313 743.187 510 739.1 510C735.013 510 731.7 513.313 731.7 517.4C731.7 521.487 735.013 524.8 739.1 524.8Z" fill="#C7CAD1"/>
<path id="XMLID 199" opacity="0.43" d="M843.6 445C846.582 445 849 442.582 849 439.6C849 436.618 846.582 434.2 843.6 434.2C840.618 434.2 838.2 436.618 838.2 439.6C838.2 442.582 840.618 445 843.6 445Z" fill="#C7CAD1"/>
<path id="XMLID 203" opacity="0.51" d="M858 509C861.038 509 863.5 506.538 863.5 503.5C863.5 500.462 861.038 498 858 498C854.962 498 852.5 500.462 852.5 503.5C852.5 506.538 854.962 509 858 509Z" fill="#464950"/>
<path id="XMLID 205" opacity="0.43" d="M826.2 476.7C830.674 476.7 834.3 473.074 834.3 468.6C834.3 464.126 830.674 460.5 826.2 460.5C821.727 460.5 818.1 464.126 818.1 468.6C818.1 473.074 821.727 476.7 826.2 476.7Z" fill="#C7CAD1"/>
<path id="XMLID 204" opacity="0.43" d="M869.3 536.6C873.553 536.6 877 533.153 877 528.9C877 524.647 873.553 521.2 869.3 521.2C865.047 521.2 861.6 524.647 861.6 528.9C861.6 533.153 865.047 536.6 869.3 536.6Z" fill="#C7CAD1"/>
<path id="XMLID 198" opacity="0.43" d="M757.3 548C759.84 548 761.9 545.941 761.9 543.4C761.9 540.86 759.84 538.8 757.3 538.8C754.759 538.8 752.7 540.86 752.7 543.4C752.7 545.941 754.759 548 757.3 548Z" fill="#C7CAD1"/>
<path id="XMLID 197" opacity="0.35" d="M722.4 599.2C724.278 599.2 725.8 597.678 725.8 595.8C725.8 593.922 724.278 592.4 722.4 592.4C720.522 592.4 719 593.922 719 595.8C719 597.678 720.522 599.2 722.4 599.2Z" fill="#C7CAD1"/>
<path id="XMLID 209" d="M853.4 724.7C853.4 707.1 867.7 692.9 885.2 692.9C902.7 692.9 917 707.2 917 724.7H853.4Z" fill="#AECC75"/>
<path id="XMLID 227" opacity="0.51" d="M893.8 694C891.1 693.2 888.2 692.8 885.2 692.8C867.6 692.8 853.4 707.1 853.4 724.6H870.7C870.6 710.1 880.4 697.8 893.8 694Z" fill="#464950"/>
<path id="XMLID 168" d="M853.4 724.7C853.4 707.1 867.7 692.9 885.2 692.9C902.7 692.9 917 707.2 917 724.7H853.4Z" stroke="#464950" stroke-width="10" stroke-miterlimit="10" stroke-linecap="round" stroke-linejoin="round"/>
<path id="XMLID 219" opacity="0.67" d="M346 503.5C347.933 503.5 349.5 501.933 349.5 500C349.5 498.067 347.933 496.5 346 496.5C344.067 496.5 342.5 498.067 342.5 500C342.5 501.933 344.067 503.5 346 503.5Z" fill="#464950"/>
<path id="XMLID 223" opacity="0.76" d="M326.5 513.3C329.703 513.3 332.3 510.703 332.3 507.5C332.3 504.297 329.703 501.7 326.5 501.7C323.297 501.7 320.7 504.297 320.7 507.5C320.7 510.703 323.297 513.3 326.5 513.3Z" fill="#464950"/>
<path id="XMLID 228" opacity="0.43" d="M639.3 682.3C641.675 682.3 643.6 680.375 643.6 678C643.6 675.625 641.675 673.7 639.3 673.7C636.925 673.7 635 675.625 635 678C635 680.375 636.925 682.3 639.3 682.3Z" fill="#C7CAD1"/>
<path id="XMLID 232" opacity="0.51" d="M627.3 669.3C629.233 669.3 630.8 667.733 630.8 665.8C630.8 663.867 629.233 662.3 627.3 662.3C625.367 662.3 623.8 663.867 623.8 665.8C623.8 667.733 625.367 669.3 627.3 669.3Z" fill="#464950"/>
<path id="XMLID 132" d="M715.6 725.2C715.4 723.7 715.4 722.2 715.6 720.6C716.9 709 727.3 700.6 738.9 701.8C750.5 703.1 758.9 713.5 757.7 725.1L715.6 725.2Z" fill="#AECC75"/>
<path id="XMLID 35" d="M715.6 725.2C715.4 723.7 715.4 722.2 715.6 720.6C716.9 709 727.3 700.6 738.9 701.8C750.5 703.1 758.9 713.5 757.7 725.1L715.6 725.2Z" stroke="#464950" stroke-width="10" stroke-miterlimit="10" stroke-linecap="round" stroke-linejoin="round"/>
<path id="XMLID 221" d="M592.9 725.8C592.8 725.1 592.8 724.5 592.8 723.8C592.8 714.3 600.5 706.6 610 706.6C619.5 706.6 627.2 714.3 627.2 723.8C627.2 724.7 627.1 725.5 627 726.4L592.9 725.8Z" fill="#464950"/>
</g>
<g id="cloud">
        <path id="XMLID 260" d="M133.8 396H158.8" stroke="#464950" stroke-width="10" stroke-miterlimit="10" stroke-linecap="round" stroke-linejoin="round"/>
        <path id="XMLID 257" d="M62.1 374.2H114.6" stroke="#464950" stroke-width="10" stroke-miterlimit="10" stroke-linecap="round" stroke-linejoin="round"/>
        <path id="XMLID 262" d="M92.5 396H114.6" stroke="#464950" stroke-width="10" stroke-miterlimit="10" stroke-linecap="round" stroke-linejoin="round"/>
        <path id="XMLID 258" d="M144 381.5C144 373.5 150.5 367 158.5 367C166.5 367 173 373.5 173 381.5C173 389.5 166.5 396 158.5 396" stroke="#464950" stroke-width="10" stroke-miterlimit="10" stroke-linecap="round" stroke-linejoin="round"/>
        <path id="XMLID 1" d="M177.8 264.2C164.5 265.8 154.3 277.1 154.3 290.8C154.3 291.5 154.3 292.1 154.4 292.8H131" stroke="#464950" stroke-width="10" stroke-miterlimit="10" stroke-linecap="round" stroke-linejoin="round"/>
        <path id="XMLID 3" d="M177.8 264.2C178.6 244.4 195 228.6 215 228.6C233.3 228.6 248.5 241.8 251.6 259.2" stroke="#464950" stroke-width="10" stroke-miterlimit="10" stroke-linecap="round" stroke-linejoin="round"/>
        <path id="XMLID 4" d="M236.5 268.8C242.5 262 251.4 257.7 261.2 257.7C279.4 257.7 294.2 272.5 294.2 290.7C294.2 291.4 294.2 292 294.1 292.7H327.3" stroke="#464950" stroke-width="10" stroke-miterlimit="10" stroke-linecap="round" stroke-linejoin="round"/>
        <path id="XMLID 234" d="M888.4 170.3C897.7 171.4 904.8 179.3 904.8 188.9C904.8 189.4 904.8 189.8 904.7 190.3H921" stroke="#464950" stroke-width="10" stroke-miterlimit="10" stroke-linecap="round" stroke-linejoin="round"/>
        <path id="XMLID 9" d="M888.4 170.3C887.8 156.4 876.4 145.4 862.4 145.4C849.6 145.4 839 154.6 836.8 166.8" stroke="#464950" stroke-width="10" stroke-miterlimit="10" stroke-linecap="round" stroke-linejoin="round"/>
        <path id="XMLID 6" d="M847.3 173.5C843.1 168.8 836.9 165.8 830.1 165.8C817.4 165.8 807 176.1 807 188.9C807 189.4 807 189.8 807 190.3H783.8" stroke="#464950" stroke-width="10" stroke-miterlimit="10" stroke-linecap="round" stroke-linejoin="round"/>
        <path id="XMLID 267" d="M495.5 422.8H517.9" stroke="#464950" stroke-width="10" stroke-miterlimit="10" stroke-linecap="round" stroke-linejoin="round"/>
        <path id="XMLID 266" d="M450.7 391.6H495.5" stroke="#464950" stroke-width="10" stroke-miterlimit="10" stroke-linecap="round" stroke-linejoin="round"/>
        <path id="XMLID 259" d="M737.5 396H774.7" stroke="#464950" stroke-width="10" stroke-miterlimit="10" stroke-linecap="round" stroke-linejoin="round"/>
        <path id="XMLID 254" d="M709.3 396H717.7" stroke="#464950" stroke-width="10" stroke-miterlimit="10" stroke-linecap="round" stroke-linejoin="round"/>
        <path id="XMLID 255" d="M742.7 422.8H756.1" stroke="#464950" stroke-width="10" stroke-miterlimit="10" stroke-linecap="round" stroke-linejoin="round"/>
        <path id="XMLID 264" d="M660.6 422.8H705.3" stroke="#464950" stroke-width="10" stroke-miterlimit="10" stroke-linecap="round" stroke-linejoin="round"/>
        <path id="XMLID 252" d="M759.9 381.5C759.9 373.5 766.4 367 774.4 367C782.4 367 788.9 373.5 788.9 381.5C788.9 389.5 782.4 396 774.4 396" stroke="#464950" stroke-width="10" stroke-miterlimit="10" stroke-linecap="round" stroke-linejoin="round"/>
        <path id="XMLID 263" d="M627.3 444.3H683.4" stroke="#464950" stroke-width="10" stroke-miterlimit="10" stroke-linecap="round" stroke-linejoin="round"/>
        <path id="XMLID 265" d="M671.2 456.5C671.2 463.2 676.6 468.6 683.3 468.6C690 468.6 695.4 463.2 695.4 456.5C695.4 449.8 690 444.4 683.3 444.4" stroke="#464950" stroke-width="10" stroke-miterlimit="10" stroke-linecap="round" stroke-linejoin="round"/>
        <path id="XMLID 256" d="M772.8 422.8H837.2" stroke="#464950" stroke-width="10" stroke-miterlimit="10" stroke-linecap="round" stroke-linejoin="round"/>
</g>
<g id="birds">
<path id="XMLID 5" d="M729.9 205.1C717.7 205.1 707.5 213.6 704.9 225C700.3 217.8 692.3 213.1 683.2 213.1C679.3 213.1 675.5 214 672.2 215.6" stroke="#464950" stroke-width="10" stroke-miterlimit="10" stroke-linecap="round" stroke-linejoin="round"/>
<path id="XMLID 225" d="M772.8 236.9C763.6 236.9 755.9 243.3 753.9 251.9C750.5 246.5 744.4 242.9 737.6 242.9C734.6 242.9 731.8 243.6 729.3 244.8" stroke="#464950" stroke-width="10" stroke-miterlimit="10" stroke-linecap="round" stroke-linejoin="round"/>
</g>
</g>
</svg>
